<?xml version="1.0" standalone="no"?>
<!DOCTYPE svg PUBLIC "-//W3C//DTD SVG 20010904//EN"
 "http://www.w3.org/TR/2001/REC-SVG-20010904/DTD/svg10.dtd">
<svg version="1.0" xmlns="http://www.w3.org/2000/svg"
 width="70.000000pt" height="70.000000pt" viewBox="0 0 70.000000 70.000000"
 preserveAspectRatio="xMidYMid meet">
<metadata>
Created by potrace 1.14, written by Peter Selinger 2001-2017
</metadata>
<g transform="translate(0.000000,70.000000) scale(0.100000,-0.100000)"
fill="#000000" stroke="none">
<path d="M334 677 c4 -31 -11 -70 -24 -62 -5 3 -10 1 -10 -5 0 -6 -5 -8 -10
-5 -6 4 -10 3 -9 -2 1 -4 -1 -16 -6 -27 -5 -11 -3 -21 5 -26 10 -6 9 -9 -1
-12 -12 -4 -11 -10 1 -34 8 -16 19 -32 24 -36 13 -9 17 -38 5 -38 -5 0 -9 -9
-9 -19 0 -11 -4 -21 -10 -23 -8 -2 -15 -23 -19 -59 -3 -17 -45 -50 -59 -44 -9
3 -13 3 -9 -1 4 -4 0 -12 -9 -18 -13 -10 -13 -12 5 -12 11 0 17 4 15 8 -3 4
-1 8 4 8 6 0 9 -11 8 -25 0 -14 -4 -25 -8 -25 -4 0 -5 -7 -1 -15 3 -9 1 -15
-5 -13 -5 2 -10 0 -11 -5 0 -4 -8 -21 -17 -38 -8 -17 -14 -32 -12 -33 2 -2 12
-9 23 -15 11 -7 13 -10 4 -8 -9 3 -16 -1 -16 -8 0 -26 42 1 45 29 2 14 8 26
13 26 6 0 7 5 4 10 -3 6 -1 10 4 10 6 0 10 3 10 8 -3 18 2 33 9 28 5 -3 9 0 9
7 1 24 8 42 22 53 7 6 15 21 16 35 1 13 3 27 4 32 0 4 9 7 19 7 13 0 14 2 3 9
-9 6 -10 11 -2 15 6 4 9 12 6 17 -3 5 1 6 9 3 9 -3 16 -15 16 -26 0 -12 4 -17
13 -12 6 4 9 4 5 -1 -4 -4 -3 -16 3 -26 7 -14 6 -19 -2 -19 -7 0 -3 -10 9 -23
12 -13 19 -27 15 -30 -3 -4 -1 -7 5 -7 10 0 28 -38 24 -53 -1 -4 3 -7 9 -7 5
0 8 -4 5 -9 -4 -5 -2 -11 4 -13 5 -1 11 -15 12 -30 1 -15 4 -25 6 -23 3 2 11
-2 19 -10 8 -8 19 -15 26 -15 6 0 2 7 -9 15 -16 13 -16 14 -1 9 14 -5 17 0 17
22 0 16 -7 38 -15 48 -8 10 -12 23 -9 27 3 5 1 9 -5 9 -6 0 -8 7 -5 15 4 8 2
15 -4 15 -6 0 -9 8 -7 18 2 9 4 21 4 26 1 5 9 2 19 -5 15 -13 16 -12 3 4 -10
13 -17 14 -26 7 -16 -13 -30 4 -19 22 4 6 3 8 -3 5 -6 -4 -14 4 -17 18 -4 16
-11 23 -18 19 -7 -4 -8 -3 -4 4 4 6 -1 26 -11 44 -9 18 -17 39 -16 46 2 38 4
43 12 38 5 -3 12 5 15 19 4 14 12 25 19 25 8 0 7 4 -3 10 -13 9 -13 10 0 10 9
1 5 6 -10 16 l-25 15 24 -7 24 -6 -22 23 c-11 12 -21 26 -21 31 0 4 -6 7 -12
6 -7 -2 -12 3 -10 10 1 6 -2 12 -7 12 -5 0 -12 7 -15 16 -4 9 -2 13 5 8 8 -4
7 0 0 15 -16 29 -40 27 -37 -2z m60 -119 c6 -31 -2 -61 -14 -53 -5 3 -11 1
-15 -5 -4 -7 -12 -7 -24 0 -10 5 -22 6 -26 2 -5 -4 -5 1 -2 11 4 9 2 17 -5 17
-7 0 -6 5 2 15 7 8 9 15 5 15 -4 0 -3 6 3 13 7 7 25 13 41 13 24 0 30 -5 35
-28z"/>
<path d="M337 303 c4 -10 2 -14 -4 -10 -5 3 -9 -3 -8 -15 2 -27 33 -45 41 -23
5 13 9 13 22 3 9 -7 5 1 -8 19 -29 36 -52 51 -43 26z"/>
<path d="M182 38 c-15 -15 -15 -28 0 -28 6 0 8 3 5 7 -4 3 -2 12 4 20 14 16 7
17 -9 1z"/>
</g>
</svg>
